{"title":"Harodim.2012.BRRip XVID juggs","uid":8238956,"size":745396473,"categoryP":"video","categoryS":"movies","magnet":"?xt=urn:btih:2f9b315da8685a6f3e8bb2bfdbbf24758abe9f14&amp;dn=Harodim.2012.BRRip+XVID+juggs&amp;tr=udp%3A%2F%2Ftracker.openbittorrent.com%3A80&amp;tr=udp%3A%2F%2Fopen.demonii.com%3A1337&amp;tr=udp%3A%2F%2Ftracker.coppersurfer.tk%3A6969&amp;tr=udp%3A%2F%2Fexodus.desync.com%3A6969","seeders":2,"leechers":1,"uploader":"juggs99","files":3,"time":1362920900,"description":"Format : AVI\nFormat/Info : Audio Video Interleave\nFile size : 703 MiB\nDuration : 1h 35mn\nOverall bit rate : 1 029 Kbps\nWriting library : VirtualDub build 32842/release\n\nVideo\nID : 0\nFormat : MPEG-4 Visual\nFormat profile : Advanced Simple@L5\nFormat settings, BVOP : 4\nFormat settings, QPel : No\nFormat settings, GMC : No warppoints\nFormat settings, Matrix : Default (H.263)\nMuxing mode : Packed bitstream\nCodec ID : XVID\nCodec ID/Hint : XviD\nDuration : 1h 35mn\nBit rate : 892 Kbps\nWidth : 640 pixels\nHeight : 352 pixels\nDisplay aspect ratio : 16:9\nFrame rate : 23.976 fps\nColor space : YUV\nChroma subsampling : 4:2:0\nBit depth : 8 bits\nScan type : Progressive\nCompression mode : Lossy\nBits/(Pixel*Frame) : 0.165\nStream size : 609 MiB (87%)\nWriting library : XviD 64\n\nAudio\nID : 1\nFormat : MPEG Audio\nFormat version : Version 1\nFormat profile : Layer 3\nMode : Joint stereo\nMode extension : MS Stereo\nCodec ID : 55\nCodec ID/Hint : MP3\nDuration : 1h 35mn\nBit rate mode : Constant\nBit rate : 128 Kbps\nChannel(s) : 2 channels\nSampling rate : 44.1 KHz\nCompression mode : Lossy\nStream size : 87.4 MiB (12%)\nAlignment : Split accross interleaves\nInterleave, duration : 42 ms (1.00 video frame)\nInterleave, preload duration : 500 ms\n\nPlot\nLazarus Fell, a former naval intelligence officer trained in black ops and tasked with tracking down the most wanted Terrorist in the world\n\n &lt;a href=&quot;\nhttp://www.shotpix.com/images/93458477797075654915.png&quot; rel=&quot;nofollow&quot; target=&quot;_NEW&quot;&gt;\nhttp://www.shotpix.com/images/93458477797075654915.png&lt;/a&gt; &lt;a href=&quot;\nhttp://www.shotpix.com/images/16769968597620137355.png&quot; rel=&quot;nofollow&quot; target=&quot;_NEW&quot;&gt;\nhttp://www.shotpix.com/images/16769968597620137355.png&lt;/a&gt; &lt;a href=&quot;\nhttp://www.shotpix.com/images/79483778323051360790.png&quot; rel=&quot;nofollow&quot; target=&quot;_NEW&quot;&gt;\nhttp://www.shotpix.com/images/79483778323051360790.png&lt;/a&gt;","torrent":{"xt":"urn:btih:2f9b315da8685a6f3e8bb2bfdbbf24758abe9f14","amp;dn":"Harodim.2012.BRRip+XVID+juggs","amp;tr":["udp%3A%2F%2Ftracker.openbittorrent.com%3A80","udp%3A%2F%2Fopen.demonii.com%3A1337","udp%3A%2F%2Ftracker.coppersurfer.tk%3A6969","udp%3A%2F%2Fexodus.desync.com%3A6969"],"infoHash":"2f9b315da8685a6f3e8bb2bfdbbf24758abe9f14","infoHashBuffer":{"type":"Buffer","data":[47,155,49,93,168,104,90,111,62,139,178,191,219,191,36,117,138,190,159,20]},"announce":[],"urlList":[]}}